<!--?xml version="1.0" standalone="no"?--><svg version="1.0" xmlns="http://www.w3.org/2000/svg" width="300.000000pt" height="120.000000pt" viewBox="0 0 300.000000 120.000000" preserveAspectRatio="xMidYMid meet">
<metadata>
  <rdf:rdf xmlns:rdf="http://www.w3.org/1999/02/22-rdf-syntax-ns#" xmlns:rdfs="http://www.w3.org/2000/01/rdf-schema#" xmlns:dc="http://purl.org/dc/elements/1.1/">
    <rdf:description dc:title="bench large" dc:publisher="Hiox" dc:date="2015-04-09" dc:format="image/svg+xml" dc:language="en">
      <dc:creator>
        <rdf:bag>
          <rdf:li>svgimages.com</rdf:li>
        </rdf:bag>
      </dc:creator>
    </rdf:description>
  </rdf:rdf>
</metadata>
<g transform="translate(0.000000,120.000000) scale(0.100000,-0.100000)" fill="#131313" stroke="none">
<path class="node" id="node1" d="M210 1170 c-11 -18 -16 -68 -20 -175 l-5 -150 -47 3 c-75 6 -115 -12
-128 -56 -13 -50 -13 -51 14 -135 21 -67 22 -77 9 -101 -13 -24 -13 -30 1 -45
14 -15 16 -54 16 -264 0 -136 4 -247 8 -247 5 0 16 6 25 12 15 11 16 25 9 108
-5 52 -6 117 -3 145 6 49 7 50 55 68 27 10 52 14 56 10 4 -4 15 -41 25 -81 9
-40 21 -74 25 -77 19 -12 20 21 5 119 -9 57 -15 121 -13 142 l3 39 1080 6
c594 3 1159 9 1255 13 107 4 180 4 189 -2 11 -8 9 -35 -12 -168 -21 -122 -24
-160 -14 -166 21 -13 25 -9 32 39 22 150 33 166 90 122 l27 -22 -7 -148 -8
-149 27 0 c20 0 26 5 27 23 15 454 15 452 33 480 18 27 18 29 1 61 -16 30 -17
41 -7 91 14 66 15 154 4 172 -4 7 -25 18 -47 25 -50 16 -62 42 -76 150 -21
166 -22 173 -44 173 -16 0 -21 -8 -23 -38 l-3 -37 -1267 2 -1267 3 -5 40 -5
40 -15 -25z m2553 -87 c18 -5 23 -47 9 -71 -7 -10 -268 -12 -1273 -10 l-1264
3 -3 28 c-7 62 -109 58 1260 56 689 0 1261 -3 1271 -6z m1 -106 c12 -9 17 -23
14 -42 l-3 -30 -1034 -8 c-569 -5 -1141 -5 -1270 0 l-236 8 -3 34 c-2 20 2 37
10 42 7 5 574 9 1259 9 1006 0 1249 -2 1263 -13z m-10 -117 c27 -10 33 -33 16
-60 -13 -21 -230 -23 -1487 -15 -1131 8 -1061 4 -1047 61 l6 24 1243 0 c784 0
1253 -4 1269 -10z m120 -34 c64 -27 70 -49 44 -168 -12 -55 -31 -62 -73 -25
-31 26 -42 86 -31 161 8 51 11 52 60 32z m-2707 -33 c8 -10 13 -47 13 -90 l0
-73 -36 -15 c-20 -8 -43 -15 -50 -15 -41 0 -65 186 -26 210 23 14 84 4 99 -17z
m1743 -45 c550 0 849 -4 858 -10 6 -6 12 -28 12 -49 l0 -39 -727 0 c-401 0
-968 3 -1261 7 -595 7 -576 5 -565 72 l6 34 416 -7 c229 -4 796 -8 1261 -8z
m968 -258 c18 0 22 -5 22 -32 0 -57 -10 -78 -37 -78 -43 0 -63 18 -63 55 0 51
9 68 34 61 11 -3 31 -6 44 -6z m-2690 -56 c3 -40 2 -41 -43 -59 -25 -9 -49
-15 -52 -12 -3 4 -2 26 1 50 5 35 12 45 34 54 45 18 57 12 60 -33z"></path>
</g>
<g transform="translate(0.000000,120.000000) scale(0.100000,-0.100000)" fill="#A4A4A4" stroke="none">

<path class="node" id="node3" d="M234 1076 c-3 -8 -4 -27 -2 -43 l3 -28 1264 -3 c1005 -2 1266 0 1273
10 14 24 9 66 -9 71 -10 3 -582 6 -1271 6 -1084 1 -1253 0 -1258 -13z"></path>
<path class="node" id="node4" d="M242 981 c-8 -5 -12 -22 -10 -42 l3 -34 236 -8 c129 -5 701 -5 1270
0 l1034 8 3 30 c3 19 -2 33 -14 42 -14 11 -257 13 -1263 13 -685 0 -1252 -4
-1259 -9z"></path>
<path class="node" id="node5" d="M236 846 c-14 -57 -84 -53 1047 -61 1257 -8 1474 -6 1487 15 17 27
11 50 -16 60 -16 6 -485 10 -1269 10 l-1243 0 -6 -24z"></path>


<path class="node" id="node8" d="M227 729 c-11 -67 -30 -65 565 -72 293 -4 860 -7 1261 -7 l727 0 0
39 c0 21 -6 43 -12 49 -9 6 -308 10 -858 10 -465 0 -1032 4 -1261 8 l-416 7
-6 -34z"></path>



</g>
</svg>